<svg xmlns="http://www.w3.org/2000/svg" width="85" height="66" viewBox="0 0 85 66" fill="none"><g clip-path="url(#clip0_19438_2367)"><path fill-rule="evenodd" clip-rule="evenodd" d="M1.23909 54.7699C3.03909 54.5499 4.82778 54.2831 6.60512 53.9698C6.64844 53.9233 6.69787 53.883 6.75209 53.8498C13.8791 49.5298 18.0871 41.6498 23.7651 35.7498C29.2531 30.0398 35.5441 25.4098 43.0811 22.8198C50.9551 20.1198 59.3731 19.3399 67.1361 16.2999C75.0631 13.1899 80.7821 7.9399 84.0231 0.0599023C84.0611 -0.0300977 84.3711 -0.0201807 84.3621 0.0998193C84.3391 0.409819 84.3011 0.709853 84.2571 1.00985C84.4571 0.959853 84.7571 1.02981 84.7171 1.21981C76.4251 35.2298 57.5281 68.6598 27.8681 64.6998C21.0531 63.7898 13.1151 59.6699 7.5291 55.6399C5.7411 56.0099 3.94609 56.3332 2.14409 56.6098C0.404086 56.8798 -1.18691 55.0799 1.23909 54.7699ZM48.3271 22.8398C40.568 25.159 33.4972 29.3484 27.7361 35.0399C26.6781 36.3299 25.6751 37.6765 24.7271 39.0798C21.9591 43.1598 19.6471 47.6399 16.8131 51.6799C22.3686 50.1776 27.8041 48.2622 33.0741 45.9498C33.2951 45.8698 33.7211 45.6499 33.7211 45.6499C40.9881 38.6599 45.0291 25.7399 54.1211 21.2799C52.1761 21.7699 50.2381 22.2798 48.3271 22.8398ZM57.6131 20.3798C46.6751 23.7398 43.0851 37.0298 35.3421 44.9398C37.4721 43.9498 39.5698 42.8999 41.6351 41.7899C47.6521 34.5799 51.1101 23.7198 60.0891 19.7298C60.0835 19.7291 60.0779 19.7297 60.0725 19.7314C60.0671 19.7331 60.0622 19.736 60.0581 19.7398C59.4161 19.9298 58.0661 20.2698 57.6131 20.3798ZM81.4031 7.66989C78.7642 11.0312 75.3879 13.7409 71.5351 15.5898C68.2365 17.1786 64.7961 18.4542 61.2591 19.3999C52.1781 24.3999 48.7791 33.9799 42.3041 41.4199C55.1749 34.363 66.6711 25.048 76.2431 13.9199C76.2631 13.8999 76.3551 13.9098 76.3341 13.9398C72.007 19.4224 67.1656 24.4788 61.8761 29.0399C66.2091 27.1799 71.0351 26.4498 75.0051 23.7198C77.2691 18.2798 79.3091 12.7999 81.4031 7.66989ZM74.7681 24.2799C70.8921 27.4699 65.1681 27.8698 60.6311 30.1098C59.7144 30.8798 58.7857 31.6399 57.8451 32.3899C63.3301 30.1599 70.1061 29.1998 74.3201 25.3498C74.4711 24.9998 74.6181 24.6399 74.7681 24.2799ZM73.9031 26.3198C69.1811 30.1198 61.3711 30.9799 56.2111 33.6499C50.6812 37.85 44.7917 41.5543 38.6111 44.7198C47.3761 43.5498 56.6441 47.2898 64.7111 42.1298C64.7191 42.1298 64.7501 42.1399 64.7381 42.1399C56.9611 47.8199 46.3751 44.2099 37.4461 45.3099C37.2341 45.4099 37.0251 45.5299 36.8121 45.6298C46.0941 45.9798 57.1961 49.3498 64.5121 43.7398C68.2318 38.2707 71.3787 32.4333 73.9031 26.3198ZM56.8241 52.4698C59.4683 50.0812 61.8526 47.4198 63.9371 44.5299C61.051 46.2853 57.7569 47.2572 54.3801 47.3498C48.2191 47.6498 42.1691 46.0298 36.0301 45.9998C29.6626 49.0804 23.0372 51.5967 16.2301 53.5199C21.3681 54.8099 25.9531 57.6798 31.0081 59.3298C35.8068 60.8867 40.9755 60.8832 45.7721 59.3198C49.8172 57.6784 53.5543 55.3622 56.8241 52.4698ZM43.4461 60.1898C40.8748 60.7965 38.2196 60.9655 35.5921 60.6898C28.3441 59.9198 22.3061 55.2499 15.2811 53.7799C13.2701 54.3299 11.2481 54.8399 9.21211 55.2799C14.1064 58.7841 19.7718 61.0595 25.7302 61.914C31.6887 62.7686 37.7652 62.1772 43.4471 60.1898H43.4461ZM15.7231 51.9798C17.8161 47.9138 20.1936 44.0008 22.8381 40.2699C18.8071 44.9399 14.9261 49.9598 9.8181 53.3498C11.8028 52.9498 13.7711 52.4932 15.7231 51.9798ZM32.2231 32.9898C32.2381 32.9798 32.2981 32.9899 32.2771 33.0099C29.8219 35.8328 27.5892 38.8418 25.5991 42.0099C25.5491 42.0899 25.2761 42.0698 25.3281 41.9598C27.0378 38.5602 29.3776 35.5163 32.2231 32.9898ZM23.6231 45.0998C23.5231 45.3098 23.4151 45.5198 23.3101 45.7198C23.2961 45.7498 23.2031 45.7398 23.2201 45.7098C23.3341 45.4998 23.4481 45.2998 23.5631 45.0898C23.5671 45.0698 23.6291 45.0798 23.6181 45.0998H23.6231ZM29.5431 56.9798C33.6616 58.3312 38.0188 58.798 42.3301 58.3498C42.3531 58.3398 42.3771 58.3698 42.3431 58.3698C37.9759 58.8594 33.5546 58.4302 29.3631 57.1098C29.1471 57.0498 29.4221 56.9398 29.5381 56.9798H29.5431ZM26.0911 55.3698C26.477 55.474 26.8367 55.658 27.1471 55.9099C27.2061 55.9499 27.0561 55.9598 27.0381 55.9598C26.6007 55.8862 26.1823 55.7265 25.8071 55.4898C25.6471 55.3698 26.0401 55.3598 26.0861 55.3698H26.0911ZM53.1911 27.5099C51.9441 29.6199 50.6731 31.6998 49.2911 33.7198C49.2341 33.7998 48.9281 33.7699 48.9911 33.6699C50.2911 31.5599 51.7011 29.5198 53.1341 27.4998C53.1381 27.4798 53.1991 27.4899 53.1871 27.5099H53.1911ZM58.8391 42.7599C61.6047 42.1051 64.208 40.8938 66.4901 39.1998C66.4981 39.1998 66.5281 39.1998 66.5171 39.2098C64.3342 41.0293 61.7407 42.289 58.9611 42.8798C58.8671 42.8998 58.6731 42.7999 58.8351 42.7599H58.8391ZM54.5751 43.5099C55.434 43.2438 56.3203 43.0761 57.2171 43.0099C57.2231 43.0099 57.2481 43.0099 57.2321 43.0199C56.4224 43.3395 55.5774 43.5611 54.7151 43.6799C54.5891 43.6999 54.3521 43.5799 54.5711 43.5099H54.5751ZM35.9151 29.9099C35.9361 29.8899 36.0541 29.8998 36.0291 29.9398C35.7123 30.4028 35.3688 30.847 35.0001 31.2699C34.9001 31.3799 34.4911 31.2998 34.5781 31.1998C34.9921 30.7398 35.4471 30.3299 35.9111 29.9099H35.9151Z" fill="#768B31"></path></g><defs><clipPath id="clip0_19438_2367"><rect width="85" height="66" fill="white"></rect></clipPath></defs></svg>