<svg xmlns="http://www.w3.org/2000/svg" width="150" height="62" viewBox="0 0 150 62" fill="none"><g clip-path="url(#clip0_19438_2426)"><path fill-rule="evenodd" clip-rule="evenodd" d="M146.825 0.754856C144.691 2.47486 142.521 4.13818 140.315 5.74485C140.235 5.75485 140.145 5.76489 140.035 5.78489C127.845 9.00489 114.855 5.31489 102.475 5.28489C90.4946 5.26489 78.8446 7.24496 68.1146 12.735C56.9146 18.465 47.2246 26.8149 35.7546 32.0549C24.0446 37.4149 12.3246 38.1249 0.354622 33.3849C0.214622 33.3249 -0.105324 33.6749 0.034676 33.7949C0.394676 34.0949 0.764661 34.3649 1.14466 34.6349C0.874661 34.8049 0.634642 35.205 0.874642 35.355C46.6046 62.055 102.825 76.5949 129.665 40.1549C135.825 31.7849 139.685 18.8249 141.175 8.51487C143.445 6.95487 145.685 5.33489 147.875 3.66489C149.995 2.05489 149.705 -1.56514 146.825 0.754856ZM62.6347 18.4649C73.3015 12.4523 85.2834 9.1555 97.5247 8.86496C100.045 9.07496 102.565 9.40493 105.085 9.83494C112.435 11.1149 119.735 13.2949 127.115 14.4649C119.64 18.9255 111.846 22.8261 103.795 26.1349C103.475 26.2849 102.785 26.5249 102.785 26.5249C87.5547 27.0849 69.2446 17.9149 54.8346 23.1249C57.4246 21.5249 60.0047 19.9549 62.6347 18.4649ZM50.2046 25.985C65.3446 17.605 83.5746 27.6649 100.315 27.5449C97.0046 28.8249 93.658 30.0016 90.2747 31.0749C76.1147 30.0549 60.6646 22.4148 46.8847 27.9948C46.9047 27.9848 46.9146 27.9749 46.9346 27.9649C47.8146 27.4649 49.5946 26.355 50.2046 25.985ZM11.3746 38.5149C17.7446 39.3749 24.6046 38.1249 30.3646 36.0949C35.5599 34.1822 40.5622 31.7814 45.3046 28.9249C60.2846 24.2949 74.2747 30.6549 89.1647 31.4149C67.9716 38.0116 45.7645 40.7418 23.6046 39.4749C23.5546 39.4749 23.4747 39.5849 23.5247 39.5849C34.0361 40.6432 44.6249 40.6867 55.1447 39.7149C48.5647 42.4749 42.7146 46.9649 35.5646 48.4149C27.2646 45.1649 19.1546 41.6249 11.3746 38.5149ZM36.4247 48.7549C43.9747 47.8849 50.4146 42.065 57.6146 39.485C59.4246 39.295 61.228 39.0816 63.0247 38.8449C54.8347 42.4749 46.6746 48.8449 38.0646 49.3849C37.5146 49.1749 36.9747 48.9649 36.4247 48.7549ZM39.5546 49.9549C48.6446 48.8049 57.7946 41.2049 66.1146 38.3949C76.4919 36.7822 86.7077 34.2626 96.6447 30.865C86.1747 39.175 80.5047 53.1849 66.4147 56.5549C66.4047 56.5549 66.3747 56.5949 66.4047 56.5949C80.7447 54.0849 87.9346 38.7849 98.5046 30.2149C98.8446 30.0949 99.1847 29.985 99.5247 29.865C90.1647 40.335 82.1646 55.9549 68.3746 58.0249C58.6546 56.5349 48.9946 53.4949 39.5546 49.9549ZM85.9446 58.8249C80.5685 59.1945 75.1683 58.9934 69.8346 58.2249C74.7764 56.9306 79.2952 54.3696 82.9446 50.7949C89.7446 44.4049 94.3346 36.1149 100.745 29.4049C110.785 25.7148 120.482 21.1506 129.725 15.7649C125.725 22.7149 124.035 30.7049 120.525 37.9449C117.176 44.802 111.743 50.4236 105.005 54.0049C98.9697 56.6781 92.5248 58.3079 85.9446 58.8249ZM108.405 52.3749C111.76 50.2126 114.728 47.5015 117.185 44.355C123.965 35.655 125.225 24.1848 131.005 14.9948C133.715 13.3848 136.395 11.7149 139.015 9.96494C136.395 28.9749 124.205 44.1949 108.405 52.3749ZM128.585 13.5849C121.96 11.5921 115.203 10.0683 108.365 9.02488C117.685 9.54488 127.215 10.595 136.275 8.60495C133.755 10.3383 131.191 11.9983 128.585 13.5849ZM90.5946 11.605C90.5646 11.605 90.5046 11.6749 90.5546 11.6749C96.2061 11.969 101.826 12.7013 107.365 13.865C107.495 13.895 107.765 13.5749 107.595 13.5149C102.102 11.7987 96.3313 11.1504 90.5946 11.605ZM112.805 14.9549C113.135 15.0549 113.475 15.1649 113.805 15.2649C113.855 15.2749 113.935 15.1649 113.885 15.1549C113.545 15.0549 113.195 14.9649 112.855 14.8749C112.825 14.8649 112.765 14.9449 112.805 14.9549ZM119.515 33.865C116.661 39.7684 112.588 45 107.565 49.2149C107.545 49.2449 107.545 49.2949 107.585 49.2549C112.702 45.0185 116.878 39.7595 119.845 33.8149C119.995 33.5149 119.595 33.705 119.515 33.865ZM121.385 28.4249C121.098 28.9541 120.921 29.5357 120.865 30.1349C120.845 30.2449 121.015 30.0949 121.035 30.0649C121.41 29.5144 121.675 28.8962 121.815 28.2448C121.845 27.9548 121.425 28.3649 121.385 28.4249ZM62.6046 28.6549C66.2046 29.5049 69.8146 30.3149 73.4646 30.9349C73.6146 30.9549 73.8946 30.5849 73.7246 30.5449C70.0546 29.7449 66.3647 29.1449 62.6547 28.5749C62.6247 28.5749 62.5746 28.6449 62.6046 28.6549ZM73.2647 50.8149C69.6514 53.1382 65.6021 54.7 61.3646 55.4049C61.3546 55.4149 61.3246 55.4549 61.3446 55.4449C65.6136 54.9768 69.7047 53.477 73.2647 51.0749C73.3847 50.9949 73.4747 50.6849 73.2647 50.8149ZM78.5646 46.9649C77.3725 47.62 76.2588 48.4084 75.2446 49.3149C75.2346 49.3149 75.2146 49.3549 75.2346 49.3449C76.4336 48.8003 77.5618 48.1119 78.5946 47.2949C78.7446 47.1749 78.8646 46.7949 78.5646 46.9649ZM83.3646 12.3749C83.3246 12.3849 83.2047 12.5149 83.2747 12.5249C84.111 12.673 84.9561 12.7666 85.8046 12.8049C86.0146 12.8149 86.3647 12.2849 86.1747 12.2749C85.2247 12.2449 84.3046 12.3149 83.3646 12.3749Z" fill="#768B31"></path></g><defs><clipPath id="clip0_19438_2426"><rect width="150" height="62" fill="white"></rect></clipPath></defs></svg>